<svg width="20" height="20" viewBox="0 0 20 20" fill="none" xmlns="http://www.w3.org/2000/svg">
<path d="M16 3.99994C15.2315 3.99994 14.6 4.63148 14.6 5.39994C14.6 5.71578 14.7085 6.00219 14.8875 6.23743L12.5125 9.63118C12.4119 9.60792 12.3072 9.59992 12.2 9.59992C11.8096 9.59992 11.4549 9.75753 11.2 10.0187L9.525 9.04368C9.57296 8.90303 9.6 8.75603 9.6 8.59993C9.6 7.83147 8.96846 7.19993 8.2 7.19993C7.43154 7.19993 6.8 7.83147 6.8 8.59993C6.8 8.91577 6.90848 9.20219 7.0875 9.43743L4.7125 12.8312C4.61194 12.8079 4.50724 12.7999 4.4 12.7999C3.63154 12.7999 3 13.4315 3 14.1999C3 14.9684 3.63154 15.5999 4.4 15.5999C5.16846 15.5999 5.8 14.9684 5.8 14.1999C5.8 13.825 5.6495 13.4772 5.40624 13.2249L7.725 9.91242C7.87378 9.96684 8.03328 9.99992 8.2 9.99992C8.52498 9.99992 8.8239 9.88216 9.0625 9.69368L10.8312 10.7249C10.8132 10.8139 10.8 10.906 10.8 10.9999C10.8 11.7684 11.4315 12.3999 12.2 12.3999C12.9685 12.3999 13.6 11.7684 13.6 10.9999C13.6 10.625 13.4495 10.2772 13.2062 10.0249L15.525 6.71244C15.6738 6.76684 15.8333 6.79993 16 6.79993C16.7685 6.79993 17.4 6.1684 17.4 5.39994C17.4 4.63148 16.7685 3.99994 16 3.99994ZM16 4.79994C16.3361 4.79994 16.6 5.06383 16.6 5.39994C16.6 5.73604 16.3361 5.99993 16 5.99993C15.6639 5.99993 15.4 5.73604 15.4 5.39994C15.4 5.06383 15.6639 4.79994 16 4.79994ZM8.2 7.99993C8.5361 7.99993 8.8 8.26383 8.8 8.59993C8.8 8.93604 8.5361 9.19993 8.2 9.19993C7.8639 9.19993 7.6 8.93604 7.6 8.59993C7.6 8.26383 7.8639 7.99993 8.2 7.99993ZM12.2 10.3999C12.5361 10.3999 12.8 10.6638 12.8 10.9999C12.8 11.336 12.5361 11.5999 12.2 11.5999C11.8639 11.5999 11.6 11.336 11.6 10.9999C11.6 10.6638 11.8639 10.3999 12.2 10.3999ZM4.4 13.5999C4.7361 13.5999 5 13.8638 5 14.1999C5 14.536 4.7361 14.7999 4.4 14.7999C4.0639 14.7999 3.8 14.536 3.8 14.1999C3.8 13.8638 4.0639 13.5999 4.4 13.5999Z" fill="white"/>
</svg>
