<svg width="16" height="16" viewBox="0 0 16 16" fill="none" xmlns="http://www.w3.org/2000/svg">
<path d="M15.584 12.6081L14.432 8.3041C14.32 7.8561 13.76 7.7121 13.44 8.0321L12.544 8.9281L9.712 6.1281C9.536 5.9521 9.296 5.8561 9.04 5.8561H4.944L2.032 2.9281C1.664 2.5601 1.056 2.5601 0.687999 2.9281C0.319999 3.2961 0.319999 3.9041 0.687999 4.2721L3.888 7.4721C4.064 7.6481 4.304 7.7441 4.56 7.7441H8.64L11.184 10.2881L10.288 11.1841C9.968 11.5041 10.112 12.0641 10.56 12.1761L14.864 13.3281C15.296 13.4561 15.696 13.0561 15.584 12.6081Z" fill="#EEEEEE"/>
</svg>
