<svg width="16" height="16" viewBox="0 0 16 16" fill="none" xmlns="http://www.w3.org/2000/svg">
<path d="M15.347 4.00797L11.6755 4.64474C11.2376 4.72239 11.0692 5.21939 11.3892 5.49895L12.2986 6.33763L8.7282 9.64574L6.13459 7.25396C5.81459 6.95887 5.2925 6.95887 4.97251 7.25396L0.239994 11.6027C-0.079998 11.8977 -0.079998 12.3792 0.239994 12.6743C0.391569 12.8141 0.610511 12.8917 0.812611 12.8917C1.01471 12.8917 1.23365 12.8141 1.38523 12.6743L5.52828 8.85366L8.15559 11.2454C8.47558 11.5405 8.99767 11.5405 9.31766 11.2454L13.4607 7.4248L14.3702 8.26348C14.6902 8.55857 15.2291 8.40326 15.2965 7.99945L15.987 4.61368C16.0712 4.25646 15.7343 3.94584 15.347 4.00797Z" fill="#EEEEEE"/>
</svg>
