<svg width="20" height="20" viewBox="0 0 20 20" fill="none" xmlns="http://www.w3.org/2000/svg">
<rect x="2" y="2" width="16" height="16" rx="8" fill="white"/>
<path d="M10 0.625C4.83042 0.625 0.625 4.83042 0.625 10C0.625 15.1692 4.83042 19.375 10 19.375C15.1696 19.375 19.375 15.1692 19.375 10C19.375 4.83042 15.1696 0.625 10 0.625ZM14.8583 11.7804H11.7812V14.8579C11.7812 15.8396 10.9825 16.6387 10.0004 16.6387C9.01833 16.6387 8.21958 15.8396 8.21958 14.8579V11.7804H5.1425C4.16083 11.7804 3.36167 10.9812 3.36167 10C3.36167 9.01833 4.16042 8.21917 5.1425 8.21917H8.21958V5.14208C8.21958 4.16 9.01833 3.36125 10.0004 3.36125C10.9825 3.36125 11.7812 4.16 11.7812 5.14208V8.21917H14.8583C15.84 8.21917 16.6392 9.01833 16.6392 10C16.6396 10.9812 15.8404 11.7804 14.8583 11.7804Z" fill="#51A7F9"/>
</svg>
