<svg width="20" height="20" viewBox="0 0 20 20" fill="none" xmlns="http://www.w3.org/2000/svg">
<rect x="2" y="2" width="16" height="16" rx="8" fill="white"/>
<path d="M9.99665 0C4.48014 0 0 4.48083 0 9.99665C0 15.5203 4.48014 19.9995 9.99665 19.9995C15.5201 19.9995 20 15.5203 20 9.99665C19.9998 4.4806 15.5199 0 9.99665 0ZM16.5186 8.50543L9.49127 14.9362C9.0632 15.3256 8.50566 15.5455 7.94189 15.5455C7.87059 15.5455 7.80574 15.5392 7.74089 15.5328C7.09913 15.4742 6.51597 15.1435 6.12021 14.6259L3.31937 10.9033C3.13822 10.6643 3.05353 10.3857 3.05353 10.1072C3.05353 9.71142 3.23514 9.31589 3.57852 9.05627C4.16237 8.6162 4.99198 8.73181 5.43275 9.31589L7.99358 12.7123L14.7293 6.55382C15.2674 6.06159 16.1039 6.09321 16.5962 6.63136C16.7716 6.8259 16.8814 7.0539 16.9269 7.29297C17.0046 7.72843 16.8685 8.18743 16.5186 8.50543Z" fill="#70C041"/>
</svg>
