<svg width="24" height="27" viewBox="0 0 24 27" fill="none" xmlns="http://www.w3.org/2000/svg">
<circle cx="12" cy="12" r="12" fill="white"/>
<circle cx="12" cy="12" r="12" fill="url(#paint0_linear)"/>
<circle cx="12" cy="12" r="11.85" stroke="black" stroke-opacity="0.1" stroke-width="0.3"/>
<path d="M7.40361 9.14162C7.86178 9.17471 10.6528 16.4605 12.6094 15.7744C11.8288 13.6341 14.566 15.0882 12.6094 15.7744C13.39 17.9146 7.87019 14.1201 7.87019 14.1201L7.40361 11.5966C7.40361 11.5966 6.94544 9.10853 7.40361 9.14162Z" fill="#A352FD"/>
<path d="M10.8 5.88C11.64 5.16 16.7528 15.5456 16.4075 14.4021C16.8831 13.8667 16.0622 13.2585 16.4075 14.4021C15.9319 14.9374 11.1702 10.9093 11.1702 10.9093L10.7037 8.38573C10.7037 8.38573 9.95998 6.6 10.8 5.88Z" fill="#A352FD"/>
<path d="M15.3717 2.96631C14.9113 1.59403 13.2238 17.7749 11.1702 18C12.5412 16.344 9.1167 18.2251 11.1702 18L15.0312 12.2391C15.0312 12.2391 15.832 4.3386 15.3717 2.96631Z" fill="#A352FD"/>
<path d="M17.612 14.4486C17.612 15.1682 17.5214 16.9766 17.2343 17.6414C16.9473 18.3062 16.5265 18.9103 15.9961 19.4191C15.4657 19.9279 14.836 20.3315 14.1429 20.6069C13.4499 20.8823 12.7071 21.024 11.957 21.024C11.2068 21.024 10.464 20.8823 9.77099 20.6069C9.07795 20.3315 8.44825 19.9279 7.91782 19.4191C7.38739 18.9103 6.96663 18.3062 6.67957 17.6414C6.3925 16.9766 6.24475 15.1682 6.24475 14.4486H17.612Z" fill="#5369ED"/>
<path d="M17.612 14.4486C17.612 15.1682 17.5214 16.9766 17.2343 17.6414C16.9473 18.3062 16.5265 18.9103 15.9961 19.4191C15.4657 19.9279 14.836 20.3315 14.1429 20.6069C13.4499 20.8823 12.7071 21.024 11.957 21.024C11.2068 21.024 10.464 20.8823 9.77099 20.6069C9.07795 20.3315 8.44825 19.9279 7.91782 19.4191C7.38739 18.9103 6.96663 18.3062 6.67957 17.6414C6.3925 16.9766 6.24475 15.1682 6.24475 14.4486H17.612Z" fill="url(#paint1_radial)"/>
<path fill-rule="evenodd" clip-rule="evenodd" d="M12.8846 15.3233C14.0436 14.9473 12.1095 15.0931 12.1095 15.0931L12.8846 15.3233Z" fill="#5369ED"/>
<path fill-rule="evenodd" clip-rule="evenodd" d="M12.8846 15.3233C14.0436 14.9473 12.1095 15.0931 12.1095 15.0931L12.8846 15.3233Z" fill="url(#paint2_radial)"/>
<path d="M7.9199 11.0618C7.9199 6.21502 6.13636 11.3065 6.24475 14.4486C6.35314 17.5907 12.8846 15.3233 12.8846 15.3233C12.535 15.3212 7.9199 15.9086 7.9199 11.0618Z" fill="#5369ED"/>
<path d="M7.9199 11.0618C7.9199 6.21502 6.13636 11.3065 6.24475 14.4486C6.35314 17.5907 12.8846 15.3233 12.8846 15.3233C12.535 15.3212 7.9199 15.9086 7.9199 11.0618Z" fill="url(#paint3_radial)"/>
<path d="M11.065 6.28482C11.4548 9.4579 15.9961 15.0931 15.9961 15.0931L7.57094 16.716C7.57094 16.716 10.6751 3.11174 11.065 6.28482Z" fill="#5369ED"/>
<path d="M11.065 6.28482C11.4548 9.4579 15.9961 15.0931 15.9961 15.0931L7.57094 16.716C7.57094 16.716 10.6751 3.11174 11.065 6.28482Z" fill="url(#paint4_radial)"/>
<path d="M15.8781 3.50242C17.7831 6.95407 17.612 14.4698 17.612 14.4698C17.612 14.4698 5.92714 16.973 11.5765 14.4698C17.2258 11.9665 13.973 0.0507816 15.8781 3.50242Z" fill="#5369ED"/>
<path d="M15.8781 3.50242C17.7831 6.95407 17.612 14.4698 17.612 14.4698C17.612 14.4698 5.92714 16.973 11.5765 14.4698C17.2258 11.9665 13.973 0.0507816 15.8781 3.50242Z" fill="url(#paint5_radial)"/>
<g filter="url(#filter0_d)">
<path fill-rule="evenodd" clip-rule="evenodd" d="M13.44 17.1412C13.44 15.5248 12.7737 13.7799 11.9506 13.4622C11.6085 13.3302 11.6617 13.8066 11.7268 14.3898C11.814 15.1719 11.9227 16.1461 11.1281 16.1016C11.0645 16.0877 10.9959 16.0782 10.9218 16.0746C10.6882 16.0399 10.61 16.0489 10.6406 16.0875C10.64 16.0876 10.6394 16.0877 10.6389 16.0877C10.0282 17.535 10.2863 18.72 11.4857 18.72C12.6851 18.72 13.44 18.419 13.44 17.1412C13.44 17.1412 13.44 17.1412 13.44 17.1412C13.44 17.1412 13.44 17.1412 13.44 17.1412ZM11.8603 16.6003C11.8464 16.5953 11.8325 16.5903 11.8186 16.5853C11.8482 16.627 11.8603 16.6433 11.8603 16.614C11.8603 16.6094 11.8603 16.6049 11.8603 16.6003Z" fill="#A352FD"/>
</g>
<defs>
<filter id="filter0_d" x="8.32001" y="13.44" width="11.12" height="13.28" filterUnits="userSpaceOnUse" color-interpolation-filters="sRGB">
<feFlood flood-opacity="0" result="BackgroundImageFix"/>
<feColorMatrix in="SourceAlpha" type="matrix" values="0 0 0 0 0 0 0 0 0 0 0 0 0 0 0 0 0 0 127 0"/>
<feOffset dx="2" dy="4"/>
<feGaussianBlur stdDeviation="2"/>
<feColorMatrix type="matrix" values="0 0 0 0 0 0 0 0 0 0 0 0 0 0 0 0 0 0 0.1 0"/>
<feBlend mode="normal" in2="BackgroundImageFix" result="effect1_dropShadow"/>
<feBlend mode="normal" in="SourceGraphic" in2="effect1_dropShadow" result="shape"/>
</filter>
<linearGradient id="paint0_linear" x1="12" y1="0" x2="12" y2="24" gradientUnits="userSpaceOnUse">
<stop stop-color="white"/>
<stop offset="1" stop-color="white" stop-opacity="0"/>
</linearGradient>
<radialGradient id="paint1_radial" cx="0" cy="0" r="1" gradientUnits="userSpaceOnUse" gradientTransform="translate(11.76 16.32) rotate(87.1376) scale(4.806 4.67201)">
<stop stop-color="white" stop-opacity="0.41"/>
<stop offset="1" stop-color="white" stop-opacity="0"/>
</radialGradient>
<radialGradient id="paint2_radial" cx="0" cy="0" r="1" gradientUnits="userSpaceOnUse" gradientTransform="translate(11.76 16.32) rotate(87.1376) scale(4.806 4.67201)">
<stop stop-color="white" stop-opacity="0.41"/>
<stop offset="1" stop-color="white" stop-opacity="0"/>
</radialGradient>
<radialGradient id="paint3_radial" cx="0" cy="0" r="1" gradientUnits="userSpaceOnUse" gradientTransform="translate(11.76 16.32) rotate(87.1376) scale(4.806 4.67201)">
<stop stop-color="white" stop-opacity="0.41"/>
<stop offset="1" stop-color="white" stop-opacity="0"/>
</radialGradient>
<radialGradient id="paint4_radial" cx="0" cy="0" r="1" gradientUnits="userSpaceOnUse" gradientTransform="translate(11.76 16.32) rotate(87.1376) scale(4.806 4.67201)">
<stop stop-color="white" stop-opacity="0.41"/>
<stop offset="1" stop-color="white" stop-opacity="0"/>
</radialGradient>
<radialGradient id="paint5_radial" cx="0" cy="0" r="1" gradientUnits="userSpaceOnUse" gradientTransform="translate(11.76 16.32) rotate(87.1376) scale(4.806 4.67201)">
<stop stop-color="white" stop-opacity="0.41"/>
<stop offset="1" stop-color="white" stop-opacity="0"/>
</radialGradient>
</defs>
</svg>
