<svg width="20" height="20" viewBox="0 0 20 20" fill="none" xmlns="http://www.w3.org/2000/svg">
<path d="M17.4728 8.70874C17.7841 10.4307 17.4628 12.2072 16.5679 13.711C15.6731 15.2148 14.2649 16.3446 12.6029 16.8923C10.941 17.4399 9.13704 17.3685 7.52348 16.6913C5.90992 16.0141 4.59541 14.7767 3.82209 13.2069C4.03085 13.1586 4.23942 13.1094 4.44779 13.0593C5.17407 14.4562 6.37363 15.5491 7.8319 16.1426C9.29017 16.7361 10.912 16.7914 12.4073 16.2987C13.9026 15.8059 15.1739 14.7973 15.9937 13.4531C16.8134 12.109 17.1283 10.517 16.8818 8.96199C17.0791 8.8784 17.2761 8.79407 17.4728 8.70888V8.70874Z" fill="white"/>
<path d="M3.82478 11.2803C3.51265 9.69394 3.79076 8.04824 4.60683 6.65255C5.4229 5.25686 6.72071 4.20738 8.25625 3.70138C9.79178 3.19538 11.4593 3.26777 12.9452 3.90489C14.4311 4.54201 15.6331 5.7 16.3252 7.16114C16.517 7.07936 16.7084 6.99676 16.8995 6.91344C16.1454 5.30887 14.83 4.03588 13.2016 3.33474C11.5732 2.6336 9.74447 2.55286 8.06061 3.10773C6.37674 3.66261 4.95426 4.81467 4.0617 6.34653C3.16913 7.8784 2.86823 9.68406 3.2158 11.4226C3.41899 11.376 3.62198 11.3286 3.82478 11.2804V11.2803Z" fill="white"/>
<path d="M17.9938 7.01566C16.0314 7.92457 14.0315 8.74314 12 9.46893C12.1359 9.62373 12.2423 9.80391 12.3137 10C14.3185 9.27961 16.2925 8.46959 18.2302 7.57213C18.5235 7.43757 18.7582 7.19404 18.8886 6.88912C19.0189 6.58419 19.0355 6.23971 18.9352 5.92271C18.8349 5.60572 18.6248 5.33894 18.3459 5.17443C18.067 5.00993 17.7393 4.9595 17.4266 5.03288C17.3014 5.06182 16.6251 5.14481 16.5 5.17443C16.6245 5.34954 16.8902 5.51817 17 5.70368C16.5973 5.7455 17.5037 5.63836 17.5542 5.62669C17.7254 5.58627 17.9048 5.61372 18.0576 5.70368C18.2103 5.79363 18.3254 5.93964 18.3803 6.11319C18.4352 6.28673 18.4261 6.47533 18.3546 6.64222C18.2831 6.8091 18.1545 6.94221 17.9938 7.01566Z" fill="white"/>
<path d="M2.09584 10.7882C1.92086 10.8688 1.78079 11.0149 1.70297 11.198C1.62516 11.3811 1.61518 11.5881 1.67498 11.7785C1.73479 11.969 1.86009 12.1292 2.02642 12.2279C2.19275 12.3266 2.38817 12.3567 2.57453 12.3124C4.39892 11.8881 5.70853 11.3459 7.5 10.7882V11.5C5.75376 12.0389 4.49058 12.5506 2.7135 12.9639C2.37297 13.0445 2.01605 12.989 1.71232 12.8085C1.40859 12.628 1.17981 12.3354 1.07056 11.9875C0.961313 11.6397 0.979432 11.2616 1.12139 10.927C1.26334 10.5924 1.51896 10.3252 1.83842 10.1776C1.96608 10.118 2.37204 10.0589 2.5 10C2.49984 10.2391 2.5553 10.2617 2.57453 10.5C2.52296 10.5239 2.14736 10.7642 2.09584 10.7882Z" fill="white"/>
<path d="M10.6359 9.29724C10.2604 9.1444 9.93769 8.88512 9.70752 8.55132C9.47736 8.21753 9.34975 7.82375 9.3404 7.41841C9.33996 7.30727 9.29551 7.20091 9.21677 7.12248C9.13803 7.04405 9.03142 7 8.92029 7C8.80916 7 8.70255 7.04405 8.62381 7.12248C8.54507 7.20091 8.50062 7.30727 8.50018 7.41841V12.193C8.26444 12.1237 8.01288 12.1303 7.78114 12.212C7.54941 12.2937 7.34928 12.4463 7.2091 12.6481C7.06893 12.8499 6.99584 13.0907 7.00018 13.3364C7.00453 13.5821 7.08609 13.8201 7.23331 14.0168C7.38054 14.2135 7.58594 14.3589 7.82042 14.4323C8.05489 14.5058 8.30654 14.5036 8.53967 14.426C8.77281 14.3485 8.97562 14.1994 9.11934 14.0001C9.26306 13.8008 9.3404 13.5613 9.3404 13.3156V9.42084C9.61883 9.70326 9.95186 9.926 10.3192 10.0755C10.3921 10.1052 10.4578 10.1502 10.5116 10.2076C10.5655 10.265 10.6064 10.3334 10.6314 10.408C10.6564 10.4827 10.665 10.5618 10.6566 10.6401C10.6482 10.7184 10.623 10.7938 10.5827 10.8614C10.5266 10.9571 10.5106 11.0712 10.5382 11.1786C10.5658 11.286 10.6347 11.3782 10.73 11.4349C10.8252 11.4917 10.9391 11.5086 11.0467 11.4817C11.1543 11.4549 11.247 11.3866 11.3044 11.2917C11.4067 11.1201 11.4707 10.9285 11.4921 10.7299C11.5134 10.5313 11.4916 10.3304 11.4281 10.141C11.3647 9.95161 11.261 9.77817 11.1243 9.63254C10.9876 9.48691 10.8209 9.37254 10.6359 9.29724Z" fill="white"/>
<path d="M11 13.9238L11.817 14.3358V15.3479L13.2095 14.8738L14.3888 13.1126L13.6499 12L11.8268 12.2845L11 13.9238Z" fill="white"/>
<path d="M10.5919 7.0027L10.7143 8L12.1633 7.04603L13 5.65851L12.2143 5.33331L12.2653 4.68291L10.7755 4L9 6.04873L10.5919 7.0027Z" fill="white"/>
</svg>
