<svg width="16" height="16" viewBox="0 0 16 16" fill="none" xmlns="http://www.w3.org/2000/svg">
<path d="M8 0.03125C3.59897 0.03125 0.03125 3.59897 0.03125 8C0.03125 12.401 3.59897 15.9688 8 15.9688C12.401 15.9688 15.9688 12.401 15.9688 8C15.9688 3.59897 12.401 0.03125 8 0.03125ZM7.89056 2.95312C8.54916 2.95312 9.08181 3.48578 9.08181 4.14437C9.08181 4.80297 8.54916 5.33563 7.89056 5.33563C7.23197 5.33563 6.69931 4.80297 6.69931 4.14437C6.69931 3.48578 7.23197 2.95312 7.89056 2.95312ZM9.75078 13.0469H6.24922V11.6285H7.02756V7.49934H6.95738C6.56716 7.49934 6.24922 7.18347 6.24922 6.79119C6.24922 6.40097 6.56509 6.08303 6.95738 6.08303H7.02756H8.9435H8.97447H8.97653V11.6285H9.75075V13.0469H9.75078Z" fill="white"/>
</svg>
