<svg width="20" height="20" viewBox="0 0 20 20" fill="none" xmlns="http://www.w3.org/2000/svg">
<rect x="2" y="2" width="16" height="16" rx="8" fill="white"/>
<path d="M10 0C7.32867 0 4.81778 1.04022 2.92911 2.92911C1.04022 4.81778 0 7.32867 0 10C0 12.6713 1.04022 15.1822 2.92911 17.0709C4.81778 18.9598 7.32867 20 10 20C12.6713 20 15.1822 18.9598 17.0709 17.0709C18.9598 15.1822 20 12.6713 20 10C20 7.32867 18.9598 4.81778 17.0709 2.92911C15.1822 1.04022 12.6713 0 10 0ZM15.4996 13.1429L13.1429 15.4996L10 12.3569L6.85711 15.4996L4.50044 13.1429L7.64311 10L4.50044 6.85711L6.85711 4.50044L10 7.64311L13.1429 4.50044L15.4996 6.85711L12.3569 10L15.4996 13.1429Z" fill="#EC5D57"/>
</svg>
