<svg width="20" height="20" viewBox="0 0 20 20" fill="none" xmlns="http://www.w3.org/2000/svg">
<path d="M5.2 2C4.86863 2 4.6 2.26863 4.6 2.6V8.2H4C3.68585 8.20003 3.40003 8.48584 3.4 8.8V10.4C3.40654 10.7347 3.72659 11.0003 4 11H4.6V17.4C4.6 17.7314 4.86863 18 5.2 18C5.53137 18 5.8 17.7314 5.8 17.4V11H6.4C6.71415 11 6.99997 10.7141 7 10.4V8.8C6.99997 8.48584 6.71415 8.20003 6.4 8.2H5.8V2.6C5.8 2.26863 5.53137 2 5.2 2V2ZM10 2C9.66863 2 9.4 2.26863 9.4 2.6V12.2H8.8C8.48585 12.2 8.20003 12.4858 8.2 12.8V14.4C8.20654 14.7347 8.52659 15.0003 8.8 15H9.4V17.4C9.4 17.7314 9.66863 18 10 18C10.3314 18 10.6 17.7314 10.6 17.4V15H11.2C11.5142 15 11.8 14.7141 11.8 14.4V12.8C11.8 12.4858 11.5142 12.2 11.2 12.2H10.6V2.6C10.6 2.26863 10.3314 2 10 2V2ZM14.8 2C14.4686 2 14.2 2.26863 14.2 2.6V4.2H13.6C13.2859 4.20003 13 4.48585 13 4.8V6.4C13.0065 6.73469 13.3266 7.00028 13.6 7H14.2V17.4C14.2 17.7314 14.4686 18 14.8 18C15.1314 18 15.4 17.7314 15.4 17.4V7H16C16.3142 6.99997 16.6 6.71415 16.6 6.4V4.8C16.6 4.48585 16.3142 4.20003 16 4.2H15.4V2.6C15.4 2.26863 15.1314 2 14.8 2V2ZM14.2 5.4H15.4V5.8H14.2V5.4ZM4.6 9.4H5.8V9.8H4.6V9.4ZM9.4 13.4H10.6V13.8H9.4V13.4Z" fill="white"/>
</svg>
